<?xml version="1.0" encoding="UTF-8"?>
<svg width="818px" height="719px" viewBox="0 0 818 719" version="1.1" xmlns="http://www.w3.org/2000/svg" xmlns:xlink="http://www.w3.org/1999/xlink">
    <!-- Generator: Sketch 51.3 (57544) - http://www.bohemiancoding.com/sketch -->
    <title>head</title>
    <desc>Created with Sketch.</desc>
    <defs></defs>
    <g id="Page-1" stroke="none" stroke-width="1" fill="none" fill-rule="evenodd">
        <g id="ferengi" transform="translate(-100.000000, -24.000000)" fill-rule="nonzero" stroke="#F5A623" stroke-width="2">
            <g id="head" transform="translate(101.000000, 25.000000)">
                <polyline id="Path-2" points="206 661.916766 206 475.3125 228.085938 580.324219 274 633.382878 368 716.48157 461.945312 716.48157 556.5 649.401902 595.5 607.852556 619.5 547.280618 641 494.718193 658 464.682521 665 405.612366 701.5 353.550535"></polyline>
                <path d="M182,351.156352 L168,363.19544 L160,378.745928 L160,397.306189 L168,418.876221 L182,438.439739 L182,453.990228 L171,457 L160,453.990228 L154,443.456026 L143,434.42671 L121.5,423.892508 L98,404.078176 L86.5,383.762215 C84.8333333,374.955845 84,368.100253 84,363.19544 C84,358.290626 84.8333333,351.100615 86.5,341.625407 L95,328.081433 L113,312.530945 L137,303 L160,307.013029 L171,321.560261 L182,341.625407 L182,351.156352 Z" id="Path-8"></path>
                <polyline id="Path-14" points="679.705882 388 689.901961 398 695 419 695 438 689.901961 454.5 679.705882 469.5 669 481"></polyline>
                <polyline id="Path-3" points="202.5 524.961302 185.5 535.970976 123 518.956025 68 488.4292 19.5 429.877748 0 367.322779 0 303.766931 38.5 223.19613 80.5 182.66051 123 168.147757 150.5 174.653474 165.5 125.610378 202.5 75.0659631 253 36.0316623 314 10.0087951 364.5 0 414.5 0 439.5 10.0087951 495.5 0 552.5 0 619 24.0211082 680.5 69.060686 718 125.610378 731 192.669305 731 254.723835 752 241.211961 774 234.706245 797 246.716799 816 294.759015 809 373.828496 786 444.890941 746 504.443272 707 535.970976 671.5 559.992084 644 569 619 569"></polyline>
            </g>
        </g>
    </g>
</svg>