<?xml version="1.0" encoding="UTF-8"?>
<svg width="1057px" height="1018px" viewBox="0 0 1057 1018" version="1.1" xmlns="http://www.w3.org/2000/svg" xmlns:xlink="http://www.w3.org/1999/xlink">
    <!-- Generator: Sketch 51.3 (57544) - http://www.bohemiancoding.com/sketch -->
    <title>shirts</title>
    <desc>Created with Sketch.</desc>
    <defs></defs>
    <g id="shirts" stroke="none" stroke-width="1" fill="none" fill-rule="evenodd">
        <g id="blue" transform="translate(119.000000, 151.000000)" stroke="#487CAB" stroke-width="2">
            <polyline id="Path-2" points="155.382812 13.1484375 191.988281 19.6328125 229.023438 13.1484375"></polyline>
            <path d="M33.9765625,74.96875 L72.3828125,68.5585938 C81.2109375,143.803385 85.625,181.425781 85.625,181.425781 C78.2395833,229.308594 74.546875,253.25 74.546875,253.25 C63.4479167,356.958333 57.8984375,408.8125 57.8984375,408.8125 C19.78125,403.270833 0.72265625,400.5 0.72265625,400.5 C4.98828125,360.393229 7.12109375,340.339844 7.12109375,340.339844 C12.5924479,278.238281 15.328125,247.1875 15.328125,247.1875 C16.6666667,226.229167 17.3359375,215.75 17.3359375,215.75 L32.4414062,127.074219 L33.9765625,74.96875 Z" id="Path-3"></path>
            <path d="M142.753906,0.0390625 C145.272135,12.5208333 146.53125,18.7617188 146.53125,18.7617188 C155.273438,29.8320312 159.644531,35.3671875 159.644531,35.3671875 L192.867188,59.609375 L223.476562,35.3671875 C233.401042,24.296875 238.363281,18.7617188 238.363281,18.7617188 L241.964844,0.8671875" id="Path-5"></path>
            <path d="M9.34179688,344.171875 C44.4433594,351.217448 61.9941406,354.740234 61.9941406,354.740234 C61.0957031,362.091797 60.6464844,365.767578 60.6464844,365.767578 L8.20703125,354.662109 L9.34179688,344.171875 Z" id="Path-6"></path>
            <path d="M7.34179688,361.171875 C42.4433594,368.217448 59.9941406,371.740234 59.9941406,371.740234 C59.0957031,379.091797 58.6464844,382.767578 58.6464844,382.767578 L6.20703125,371.662109 L7.34179688,361.171875 Z" id="Path-6"></path>
            <polygon id="Path-7" points="325.845703 355.460938 378.326172 344.537109 379.398438 354.805664 327.115234 365.378906"></polygon>
            <polygon id="Path-7" points="327.845703 371.460938 380.326172 360.537109 381.398438 370.805664 329.115234 381.378906"></polygon>
            <path d="M339.010742,233.417969 L327.494141,258.464844" id="Path-8"></path>
            <path d="M333.094727,264.086914 L349.723633,259.478516" id="Path-9"></path>
            <path d="M319.173828,110.101562 L309.964844,140.545898" id="Path-10"></path>
            <path d="M271.683594,179.167969 L265.444336,271.189453" id="Path-11"></path>
            <path d="M111.314453,179.78125 L120.765625,292.884766" id="Path-12"></path>
            <path d="M69.1191406,109.65625 L78.0214844,139.697266" id="Path-13"></path>
            <path d="M49.2675781,234.078125 L61.015625,259.003906" id="Path-14"></path>
            <path d="M38.0898438,259.144531 L56,266.369141" id="Path-15"></path>
            <polygon id="Path-16" points="317.009766 68.3535156 337.216797 71.4375 352.943359 75.3769531 355.544922 134.375 368.216797 216.142578 371.125 268.013672 386.732422 400.455078 332.404297 409.794922 314.203125 279.255859 314.203125 254.419922 306.441406 211.910156 301.677734 185.964844"></polygon>
            <path d="M80.9960938,67.78125 L191.492188,82.5664062 L306.808594,67.78125 L294.113281,157.523437 L285.097656,228.78125 L279.285156,274.601562 L279.285156,301.449219 L241.4375,266.863281 L113.332031,318.207031 C91.7747396,151.25651 80.9960938,67.78125 80.9960938,67.78125 Z" id="Path-4"></path>
        </g>
        <g id="common" transform="translate(152.000000, 134.000000)">
            <path d="M52.6835938,199.828125 L57.6953125,275.091797 L55.1894531,333.654297 L48.203125,406.675781 L65.7460938,412.855469 L97.0039062,417.923828 L137.423828,422.318359 C162.947266,422.318359 175.708984,422.318359 175.708984,422.318359 C201.914714,420.435547 215.017578,419.494141 215.017578,419.494141 C239.169922,415.646484 251.246094,413.722656 251.246094,413.722656 C267.026042,409.067708 274.916016,406.740234 274.916016,406.740234 C269.871745,360.20638 267.349609,336.939453 267.349609,336.939453 C265.218099,309.522786 264.152344,295.814453 264.152344,295.814453 C264.166667,275.016276 264.173828,264.617188 264.173828,264.617188 C265.61263,231.4375 266.332031,214.847656 266.332031,214.847656 L268.589844,202.535156" id="Path-17" stroke="#979797" stroke-width="2"></path>
            <path d="M0.20703125,90.2636719 C1.02213542,77.5292969 1.4296875,71.1621094 1.4296875,71.1621094 C6.02604167,61.578776 8.32421875,56.7871094 8.32421875,56.7871094 C15.7395833,48.3378906 19.4472656,44.1132812 19.4472656,44.1132812 C38.6282552,36.0546875 48.21875,32.0253906 48.21875,32.0253906 C74.5013021,26.0722656 87.6425781,23.0957031 87.6425781,23.0957031 C100.470703,19.141276 106.884766,17.1640625 106.884766,17.1640625 C110.701172,10.3958333 112.609375,7.01171875 112.609375,7.01171875 C116.605469,3.69270833 118.603516,2.03320312 118.603516,2.03320312 C123.715495,2.03320312 126.271484,2.03320312 126.271484,2.03320312 C135.526693,4.39518229 140.154297,5.57617188 140.154297,5.57617188 C149.86263,6.94075521 154.716797,7.62304687 154.716797,7.62304687 C165.604818,6.86132812 171.048828,6.48046875 171.048828,6.48046875 C183.189453,3.49088542 189.259766,1.99609375 189.259766,1.99609375 C195.102214,1.12239583 198.023437,0.685546875 198.023437,0.685546875 C203.414062,4.59830729 206.109375,6.5546875 206.109375,6.5546875 C209.141927,12.8997396 210.658203,16.0722656 210.658203,16.0722656 C230.655599,20.5683594 240.654297,22.8164062 240.654297,22.8164062 C265.701172,29.9322917 278.224609,33.4902344 278.224609,33.4902344 C293.017578,40.1438802 300.414062,43.4707031 300.414062,43.4707031 C307.746094,49.8769531 311.412109,53.0800781 311.412109,53.0800781 C315.912109,61.280599 318.162109,65.3808594 318.162109,65.3808594 C320.745443,75.6152344 322.037109,80.7324219 322.037109,80.7324219 L321.90625,91.4140625" id="Path-18" stroke="#979797" stroke-width="2"></path>
            <polygon id="Path-19" stroke="#979797" stroke-width="2" points="207.245117 159.075195 208.535156 146.337891 210.151367 138.861328 213.918945 123.963867 216.289062 117.662109 219.879883 111.714844 225.674805 120.179688 228.413086 125.955078 232.731445 138.861328 234.347656 144.360352 235.819336 155.78125 231.074219 147.986328 228.413086 144.360352 225.674805 141.967773 221.532227 144.360352 216.289062 147.986328 212.220703 152.25293"></polygon>
            <path d="M213.291016,123.50293 C210.663411,123.761393 209.349609,123.890625 209.349609,123.890625 C206.999349,125.100911 205.824219,125.706055 205.824219,125.706055 C204.559896,127.765299 203.927734,128.794922 203.927734,128.794922 C203.574219,131.426432 203.397461,132.742188 203.397461,132.742188 C203.967122,135.199219 204.251953,136.427734 204.251953,136.427734 C205.850911,137.620443 206.650391,138.216797 206.650391,138.216797 L209.780273,138.695312" id="Path-20" stroke="#BA973B" stroke-width="2"></path>
            <path d="M228.415039,125.374023 C231.042643,125.687174 232.356445,125.84375 232.356445,125.84375 C234.39681,127.032552 235.416992,127.626953 235.416992,127.626953 C236.983398,129.602214 237.766602,130.589844 237.766602,130.589844 C237.799154,132.789714 237.81543,133.889648 237.81543,133.889648 L236.827148,137.03418 L235.416992,137.917969 L233.115234,137.917969" id="Path-21" stroke="#BE973E" stroke-width="2"></path>
            <polygon id="Path-22" stroke="#979797" points="221.00708 124.036133 219.551758 130.982178 216.981445 131.036621 219.099121 133.141602 217.956543 137.14624 220.972656 133.977051 223.865723 137.14624 223.038086 133.095459 225.032715 131.097656 222.596191 130.998291"></polygon>
        </g>
    </g>
</svg>